<svg width="600" height="600" viewBox="0 0 158.75 158.75" xmlns="http://www.w3.org/2000/svg"><ellipse cx="95.432" cy="52.502" rx="39.269" ry="40.088" fill="none" stroke="#3771c8" stroke-width="12.997"/><path d="M29.391 107.18c.493-.121 1.454.561 1.454.561l24.19 21.403s1.034.98.996 1.604c-.029.482-.908 1.066-.908 1.066l-16.584 12.98s-.862.35-1.312.297c-.509-.059-1.41-.676-1.41-.676l-16.257-14.5s-.758-.63-.883-1.272c-.143-.734.1-1.31.43-1.959l9.413-18.499s.446-.901.871-1.006zM33.364 93.379c-.132.159-.47 1.107-.47 1.107l-1.16 11.38s.077.645.173.894l.302.784 4.422 3.714s.925.397 1.17.261c.302-.168.972-.924.972-.924l1.56-10.589s.108-2.065.287-2.262c.19-.207 1.982-.58 1.982-.58l5.628-1.956s.759-.61.92-.844c.153-.221.07-1.573.07-1.573l-.246-.223s-.55-.352-1.008-.49c-.765-.232-2.064-.248-2.064-.248l-4.467.244-7.171.456c-.347.105-.695.52-.9.849zM69.859 125.32c-.139.16-1.041.653-1.041.653L57.522 128.9s-.663.02-.93-.041l-.84-.192-4.462-3.983s-.55-.89-.452-1.164c.121-.336.776-1.14.776-1.14l10.432-3.22s2.066-.426 2.235-.64c.18-.228.267-2.128.267-2.128l1.064-6.09s.493-1.124.703-1.326c.198-.19.939-.467.939-.467l.854.267s.227.333.545.68c.556.61 1.241 3.492 1.241 3.492l.764 3.749-.089 7.568c-.05.373-.413.794-.71 1.055zM19.101 130.79l14.607 13.028-8.127 9.958-14.485-12.92zM79.455 36.942c-.425.268-.557.823-.557.823L79 68.215s-.072.469.399.769c.562.358 1.453.091 1.453.091l34.412-14.652s1.046-.224 1.052-1.077c.004-.86-1.058-1.007-1.058-1.007L80.11 36.819s-.281-.114-.655.122z" fill="#214478"/><path d="m58.134 84.078 8.05 7.054 8.554 6.082-10.319 8.916-1.117 1.573-.977 1.882-5.53 10.329-16.77-13.51 5.432-4.555c2.065-1.456 3.47-2.89 5.199-4.347 3.798-3.85 4.962-9.005 7.478-13.424z" fill="#3771c8"/></svg>