<?xml version="1.0" encoding="UTF-8" standalone="no"?>
<svg
   xmlns:dc="http://purl.org/dc/elements/1.1/"
   xmlns:cc="http://creativecommons.org/ns#"
   xmlns:rdf="http://www.w3.org/1999/02/22-rdf-syntax-ns#"
   xmlns:svg="http://www.w3.org/2000/svg"
   xmlns="http://www.w3.org/2000/svg"
   xmlns:sodipodi="http://sodipodi.sourceforge.net/DTD/sodipodi-0.dtd"
   xmlns:inkscape="http://www.inkscape.org/namespaces/inkscape"
   width="600"
   height="600"
   viewBox="0 0 158.75 158.75"
   version="1.1"
   id="svg8"
   inkscape:version="1.0.2-2 (e86c870879, 2021-01-15)"
   sodipodi:docname="logo.svg">
  <defs
     id="defs2" />
  <sodipodi:namedview
     id="base"
     pagecolor="#ffffff"
     bordercolor="#666666"
     borderopacity="1.0"
     inkscape:pageopacity="0.0"
     inkscape:pageshadow="2"
     inkscape:zoom="1.4"
     inkscape:cx="216.46059"
     inkscape:cy="342.44397"
     inkscape:document-units="mm"
     inkscape:current-layer="layer1"
     inkscape:document-rotation="0"
     showgrid="false"
     inkscape:window-width="2560"
     inkscape:window-height="1330"
     inkscape:window-x="-12"
     inkscape:window-y="-12"
     inkscape:window-maximized="1"
     units="px"
     inkscape:pagecheckerboard="true" />
  <metadata
     id="metadata5">
    <rdf:RDF>
      <cc:Work
         rdf:about="">
        <dc:format>image/svg+xml</dc:format>
        <dc:type
           rdf:resource="http://purl.org/dc/dcmitype/StillImage" />
        <dc:title />
      </cc:Work>
    </rdf:RDF>
  </metadata>
  <g
     inkscape:label="Layer 1"
     inkscape:groupmode="layer"
     id="layer1">
    <ellipse
       style="fill:none;fill-opacity:1;stroke:#3771c8;stroke-width:12.9967;stroke-miterlimit:4;stroke-dasharray:none;stroke-opacity:1"
       id="path12"
       cx="95.432442"
       cy="52.502304"
       rx="39.268856"
       ry="40.088295" />
    <path
       style="fill:#214478;fill-opacity:1;stroke:none;stroke-width:0.580355px;stroke-linecap:butt;stroke-linejoin:miter;stroke-opacity:1"
       d="m 29.390828,107.1832 c 0.49332,-0.12144 1.454472,0.5613 1.454472,0.5613 l 24.18909,21.40344 c 0,0 1.034094,0.97891 0.99663,1.60319 -0.02891,0.48229 -0.908324,1.06595 -0.908324,1.06595 L 38.53873,144.7975 c 0,0 -0.86218,0.35067 -1.311936,0.298 -0.50892,-0.0593 -1.409683,-0.67667 -1.409683,-0.67667 l -16.2571,-14.50025 c 0,0 -0.758519,-0.63016 -0.882834,-1.27137 -0.14298,-0.73483 0.09964,-1.31113 0.429288,-1.95899 l 9.413423,-18.49866 c 0,0 0.445761,-0.90183 0.870903,-1.00645 z"
       id="path891"
       sodipodi:nodetypes="accaccaccssca" />
    <path
       style="fill:#214478;fill-opacity:1;stroke:none;stroke-width:0.739316;stroke-linecap:butt;stroke-linejoin:miter;stroke-miterlimit:4;stroke-dasharray:none;stroke-opacity:1"
       d="m 33.364308,93.379426 c -0.132062,0.158632 -0.470275,1.107137 -0.470275,1.107137 L 31.73522,105.86653 c 0,0 0.07622,0.64517 0.17216,0.8939 l 0.302342,0.78376 4.421177,3.71473 c 0,0 0.924966,0.39703 1.170338,0.26061 0.301856,-0.16806 0.97176,-0.92384 0.97176,-0.92384 l 1.560261,-10.58866 c 0,0 0.107927,-2.065629 0.287217,-2.261913 0.189811,-0.207622 1.981522,-0.581246 1.981522,-0.581246 l 5.628477,-1.954856 c 0,0 0.758392,-0.610235 0.920173,-0.843994 0.153058,-0.221222 0.07017,-1.573614 0.07017,-1.573614 l -0.246699,-0.222993 c 0,0 -0.549491,-0.351654 -1.007396,-0.490087 -0.76546,-0.231415 -2.064429,-0.247613 -2.064429,-0.247613 l -4.467116,0.244247 -7.171286,0.455943 c -0.346651,0.105327 -0.694395,0.52042 -0.899624,0.848686 z"
       id="path901"
       sodipodi:nodetypes="cccsccsccsccsccsccccc" />
    <path
       style="fill:#214478;fill-opacity:1;stroke:none;stroke-width:0.762374px;stroke-linecap:butt;stroke-linejoin:miter;stroke-opacity:1"
       d="m 69.858575,125.31931 c -0.138772,0.16003 -1.041185,0.65266 -1.041185,0.65266 l -11.295648,2.92705 c 0,0 -0.663239,0.0199 -0.929727,-0.0408 l -0.839682,-0.19149 -4.462191,-3.98303 c 0,0 -0.550011,-0.89123 -0.451879,-1.16453 0.120707,-0.33617 0.775279,-1.14076 0.775279,-1.14076 l 10.432314,-3.21949 c 0,0 2.066854,-0.4259 2.235942,-0.64031 0.17889,-0.22699 0.266584,-2.12756 0.266584,-2.12756 l 1.063622,-6.08955 c 0,0 0.493304,-1.12358 0.703012,-1.32566 0.198623,-0.19126 0.938877,-0.46746 0.938877,-0.46746 l 0.85403,0.26669 c 0,0 0.22785,0.33336 0.545191,0.68106 0.556135,0.60959 1.241174,3.49134 1.241174,3.49134 l 0.763899,3.74864 -0.08859,7.56842 c -0.05034,0.37276 -0.41303,0.79382 -0.711056,1.05501 z"
       id="path901-7"
       sodipodi:nodetypes="cccsccsccsccsccsccccc" />
    <path
       style="fill:#214478;fill-opacity:1;stroke:none;stroke-width:0.912823px;stroke-linecap:butt;stroke-linejoin:miter;stroke-opacity:1"
       d="m 19.101396,130.78536 14.606875,13.02814 -8.127119,9.95798 -14.48548,-12.92028 z"
       id="path971"
       sodipodi:nodetypes="ccccc" />
    <path
       style="fill:#214478;fill-opacity:1;stroke:none;stroke-width:0.439726px;stroke-linecap:butt;stroke-linejoin:miter;stroke-opacity:1"
       d="m 79.454838,36.942063 c -0.424571,0.26848 -0.557023,0.823334 -0.557023,0.823334 l 0.101905,30.450144 c 0,0 -0.07181,0.468414 0.39888,0.768286 0.562255,0.358255 1.452918,0.09172 1.452918,0.09172 L 115.2633,54.423993 c 0,0 1.0463,-0.224606 1.05217,-1.07703 0.004,-0.859709 -1.05825,-1.007788 -1.05825,-1.007788 L 80.109126,36.820642 c 0,0 -0.280847,-0.11473 -0.654288,0.121411 z"
       id="path975"
       sodipodi:nodetypes="sccsccsccs" />
    <path
       style="fill:#3771c8;fill-opacity:1;stroke:none;stroke-width:0.315897px;stroke-linecap:butt;stroke-linejoin:miter;stroke-opacity:1"
       d="m 58.134,84.077813 8.049379,7.054013 8.554787,6.08218 -10.319066,8.915744 -1.117371,1.57302 -0.976647,1.88201 -5.531022,10.32861 -16.768714,-13.50944 5.432166,-4.55593 c 2.064449,-1.45653 3.469031,-2.889072 5.198175,-4.346635 3.798823,-3.850911 4.962256,-9.005693 7.478364,-13.423623 z"
       id="path845"
       sodipodi:nodetypes="cccccccccccc" />
  </g>
</svg>
